<svg width="487" height="470" viewBox="0 0 487 470" fill="none" xmlns="http://www.w3.org/2000/svg">
<g filter="url(#filter0_f_2_311)">
<mask id="mask0_2_311" style="mask-type:alpha" maskUnits="userSpaceOnUse" x="0" y="-28" width="510" height="486">
<path d="M510 -28H0V333.332H91.392C110.966 404.953 176.791 457.63 255 457.63C333.208 457.63 399.034 404.953 418.608 333.332H510V-28Z" fill="white"/>
</mask>
<g mask="url(#mask0_2_311)">
<path d="M255 456.218C348.637 456.218 424.545 381.347 424.545 288.99C424.545 196.632 348.637 121.761 255 121.761C161.363 121.761 85.4546 196.632 85.4546 288.99C85.4546 381.347 161.363 456.218 255 456.218Z" fill="#C82C3F"/>
<path d="M311.1 353.659C357.388 353.659 347.82 411.125 348.264 475.03H311.1V353.659Z" fill="#FBE8B3"/>
<path d="M322.697 390.456L311.1 409.636L316.904 475.03H333.101C333.494 384.349 322.697 390.456 322.697 390.456Z" fill="#EDD494"/>
<path d="M118.958 223.515C118.958 149.409 179.867 89.3318 255 89.3318C330.133 89.3318 391.043 149.409 391.043 223.515C391.062 243.483 386.554 263.202 377.849 281.229C369.144 299.256 356.462 315.135 340.731 327.703C337.94 329.943 335.06 332.071 332.092 334.086C301.41 353.297 262.65 353.297 227.659 350.223C224.262 349.72 220.876 349.087 217.515 348.357C204.087 345.44 191.087 340.938 179.076 334.373C176.108 332.569 173.23 330.62 170.442 328.528C167.64 326.423 164.95 324.177 162.384 321.797C159.956 319.574 157.612 317.263 155.351 314.865C131.92 290.065 118.912 257.414 118.958 223.515Z" fill="#FBE8B3"/>
<path d="M137.501 291.163C137.858 291.766 138.21 292.37 138.577 292.964C138.796 293.326 139.026 293.678 139.255 294.04C139.592 294.578 139.929 295.117 140.275 295.645C140.52 296.027 140.785 296.399 141.02 296.771C141.357 297.274 141.693 297.778 142.04 298.281C142.3 298.663 142.55 299.045 142.836 299.427C143.172 299.93 143.509 300.393 143.856 300.876C144.131 301.264 144.417 301.646 144.697 302.033C144.978 302.421 145.381 302.964 145.717 303.427C146.054 303.889 146.304 304.196 146.599 304.579C146.895 304.961 147.298 305.484 147.655 305.937C148.012 306.389 148.262 306.696 148.568 307.074C148.874 307.451 149.287 307.959 149.649 308.396C150.011 308.834 150.277 309.146 150.593 309.518C150.909 309.89 151.327 310.383 151.699 310.811C152.072 311.239 152.347 311.55 152.674 311.918L153.806 313.175C154.137 313.542 154.474 313.9 154.826 314.262C155.264 314.735 155.708 315.202 156.152 315.665L156.769 316.309C157.427 316.983 158.09 317.657 158.763 318.321L158.896 318.457C159.553 319.101 160.222 319.74 160.89 320.374L161.695 321.128C162.18 321.576 162.664 322.024 163.154 322.466L163.746 322.999C164.256 323.472 164.812 323.935 165.347 324.398C167.013 325.83 168.713 327.203 170.447 328.518C173.232 330.61 176.11 332.559 179.081 334.363C191.092 340.902 204.071 345.43 217.52 348.347C220.881 349.077 224.267 349.705 227.664 350.213C249.135 352.1 272.034 352.819 293.597 348.664C259.309 338.709 94.6509 280.227 198.288 101.52C196.901 102.149 195.534 102.798 194.177 103.472L193.876 103.618C193.254 103.925 192.632 104.242 192.015 104.564L191.505 104.83C189.587 105.836 187.69 106.878 185.829 107.964L185.37 108.231C184.778 108.578 184.192 108.93 183.605 109.287L183.161 109.559C181.339 110.682 179.545 111.844 177.781 113.045L177.23 113.422C176.674 113.804 176.128 114.187 175.583 114.574L175.246 114.81C174.134 115.612 173.036 116.423 171.952 117.245L171.635 117.486C171.125 117.879 170.615 118.281 170.105 118.689L169.509 119.161C168.999 119.569 168.489 119.976 167.979 120.394C166.903 121.274 165.842 122.18 164.796 123.095L164.215 123.598L162.843 124.831L162.18 125.424C160.725 126.766 159.302 128.136 157.911 129.534L157.207 130.243C156.805 130.656 156.402 131.068 156.004 131.486C155.769 131.732 155.535 131.989 155.305 132.23C154.605 132.968 153.915 133.716 153.235 134.474C153.005 134.73 152.77 134.977 152.541 135.248C152.179 135.656 151.822 136.068 151.465 136.481L150.695 137.381C150.348 137.789 150.001 138.196 149.675 138.609C149.399 138.941 149.124 139.278 148.854 139.615C148.308 140.284 147.772 140.953 147.242 141.627C146.967 141.979 146.691 142.331 146.421 142.688C146.151 143.045 145.809 143.488 145.508 143.896C145.207 144.303 144.962 144.625 144.697 144.992C144.432 145.359 144.121 145.772 143.84 146.164C143.358 146.835 142.882 147.514 142.412 148.201C142.157 148.569 141.902 148.946 141.652 149.318C141.403 149.69 141.091 150.153 140.816 150.576L140.056 151.738L139.199 153.101C138.98 153.448 138.761 153.795 138.547 154.142C138.093 154.877 137.654 155.616 137.215 156.356L136.593 157.442C136.318 157.92 136.042 158.403 135.772 158.886C135.568 159.253 135.364 159.62 135.165 159.987C134.839 160.586 134.518 161.19 134.196 161.793L133.584 162.97C133.258 163.614 132.931 164.253 132.61 164.902C132.442 165.249 132.268 165.601 132.1 165.953C131.835 166.502 131.59 167.055 131.32 167.608C131.162 167.94 131.009 168.272 130.856 168.614C130.478 169.443 130.109 170.281 129.749 171.13C129.637 171.391 129.53 171.658 129.418 171.919C129.147 172.558 128.882 173.197 128.622 173.841C128.484 174.178 128.352 174.515 128.219 174.847C127.964 175.481 127.709 176.12 127.48 176.758C127.372 177.035 127.265 177.312 127.163 177.588C126.844 178.47 126.529 179.352 126.22 180.234L125.934 181.09C125.71 181.76 125.491 182.431 125.276 183.102L124.97 184.062C124.731 184.837 124.496 185.612 124.272 186.392C124.221 186.558 124.17 186.724 124.124 186.895C123.859 187.82 123.604 188.749 123.359 189.681C123.277 189.978 123.206 190.28 123.129 190.577C122.951 191.276 122.777 191.975 122.619 192.679L122.405 193.56C122.186 194.515 121.972 195.471 121.773 196.432L121.696 196.819C121.523 197.674 121.353 198.53 121.186 199.385C121.13 199.692 121.079 199.993 121.023 200.3C120.89 201.05 120.763 201.809 120.646 202.564C120.605 202.82 120.559 203.067 120.523 203.329C120.37 204.309 120.232 205.295 120.1 206.286L120.023 206.94C119.921 207.74 119.83 208.545 119.743 209.35C119.712 209.652 119.677 209.953 119.646 210.26C119.564 211.105 119.488 211.956 119.416 212.806C119.416 212.982 119.386 213.153 119.376 213.309C119.301 214.315 119.235 215.329 119.177 216.352C119.177 216.619 119.177 216.89 119.141 217.157C119.107 217.948 119.076 218.738 119.049 219.526C119.049 219.823 119.049 220.12 119.049 220.416C119.049 221.448 119.008 222.484 119.008 223.52C119.008 223.52 119.008 223.555 119.008 223.57C119.008 224.687 119.008 225.794 119.049 226.901C119.049 227.283 119.08 227.665 119.09 228.047C119.116 228.787 119.141 229.526 119.177 230.266C119.177 230.714 119.233 231.156 119.258 231.604C119.299 232.273 119.335 232.942 119.386 233.616C119.422 234.119 119.467 234.567 119.508 235.04C119.564 235.673 119.615 236.307 119.682 236.936C119.728 237.439 119.789 237.912 119.84 238.4C119.911 239.008 119.977 239.622 120.054 240.231C120.115 240.734 120.187 241.237 120.253 241.715C120.334 242.308 120.416 242.907 120.508 243.501C120.584 244.004 120.666 244.507 120.748 245.01C120.839 245.593 120.936 246.182 121.038 246.765C121.13 247.268 121.222 247.771 121.319 248.274C121.426 248.853 121.538 249.431 121.65 250.005C121.762 250.578 121.859 251.011 121.966 251.514C122.089 252.087 122.211 252.656 122.344 253.224C122.476 253.793 122.568 254.23 122.691 254.698C122.823 255.266 122.966 255.83 123.109 256.388C123.252 256.947 123.359 257.369 123.486 257.852C123.639 258.415 123.792 258.974 123.95 259.532C124.083 260.035 124.221 260.498 124.363 260.976C124.527 261.534 124.695 262.088 124.873 262.641C125.052 263.194 125.169 263.592 125.322 264.069C125.475 264.547 125.679 265.171 125.863 265.719C126.046 266.268 126.179 266.66 126.342 267.128C126.536 267.676 126.73 268.224 126.929 268.773C127.097 269.231 127.26 269.693 127.439 270.151L128.071 271.796C128.25 272.244 128.423 272.696 128.581 273.144C128.806 273.692 129.035 274.246 129.265 274.794C129.448 275.227 129.627 275.664 129.815 276.097C130.055 276.66 130.325 277.214 130.555 277.772C130.744 278.184 130.927 278.602 131.116 279.014C131.381 279.598 131.662 280.171 131.932 280.745L132.483 281.902C132.794 282.536 133.115 283.159 133.436 283.788C133.6 284.105 133.753 284.427 133.921 284.744C134.9 286.625 135.92 288.482 136.981 290.313C137.129 290.549 137.317 290.856 137.501 291.163Z" fill="#EDD494"/>
<path d="M118.958 223.515C118.958 149.409 179.867 89.3318 255 89.3318C330.133 89.3318 391.043 149.409 391.043 223.515C391.062 243.483 386.554 263.202 377.849 281.229C369.144 299.256 356.462 315.135 340.731 327.703C337.94 329.943 335.06 332.071 332.092 334.086C301.41 353.297 262.65 353.297 227.659 350.223C224.262 349.72 220.876 349.087 217.515 348.357C204.087 345.44 191.087 340.938 179.076 334.373C176.108 332.569 173.23 330.62 170.442 328.528C167.64 326.423 164.95 324.177 162.384 321.797C159.956 319.574 157.612 317.263 155.351 314.865C131.92 290.065 118.912 257.414 118.958 223.515V223.515Z" stroke="#592D3D" stroke-width="12" stroke-miterlimit="10"/>
<path d="M196.921 353.659C150.628 353.659 160.201 411.125 159.757 475.03H196.921V353.659Z" fill="#FBE8B3"/>
<path d="M187.287 390.456L198.9 409.636L193.091 475.03H176.909C176.496 384.349 187.287 390.456 187.287 390.456Z" fill="#EDD494"/>
<path d="M315.93 510.242H194.07C192.275 510.241 190.554 509.537 189.285 508.284C188.015 507.031 187.303 505.333 187.303 503.562V360.339C187.303 358.569 188.015 356.87 189.285 355.618C190.554 354.365 192.275 353.66 194.07 353.659H313.018C319.694 353.659 322.708 357.512 322.708 363.659V503.542C322.71 504.421 322.537 505.293 322.197 506.106C321.858 506.919 321.359 507.658 320.729 508.281C320.1 508.903 319.351 509.397 318.528 509.733C317.704 510.07 316.821 510.243 315.93 510.242Z" fill="#FBE8B3"/>
<path d="M320.816 357.633C320.307 357.016 319.877 356.341 319.535 355.621C318.311 354.674 316.854 354.065 315.313 353.855C314.553 353.739 313.786 353.682 313.018 353.684H194.07C192.279 353.686 190.562 354.387 189.294 355.634C188.025 356.881 187.309 358.573 187.303 360.339C202.093 365.581 229.781 368.509 255 368.509C287.161 368.509 308.234 363.805 320.816 357.633Z" fill="#EDD494"/>
<path d="M311.1 353.659C357.388 353.659 347.82 411.125 348.264 475.03H322.697" stroke="#592D3D" stroke-width="12" stroke-miterlimit="10" stroke-linecap="square"/>
<path d="M196.921 353.659C150.628 353.659 160.201 411.125 159.757 475.03H185.293" stroke="#592D3D" stroke-width="12" stroke-miterlimit="10" stroke-linecap="square"/>
<path d="M194.07 353.709L313.018 353.659" stroke="#592D3D" stroke-width="12" stroke-miterlimit="10"/>
<path d="M194.07 510.242H253.547C197.88 510.242 202.082 393.952 187.303 393.952V503.542C187.3 504.421 187.473 505.291 187.812 506.104C188.151 506.916 188.649 507.655 189.277 508.277C189.906 508.899 190.653 509.393 191.475 509.731C192.298 510.068 193.18 510.242 194.07 510.242Z" fill="#EDD494"/>
<path d="M184.243 405.034C184.146 403.188 184.187 401.341 184.268 399.5C184.35 397.659 184.508 395.803 184.707 393.967C184.809 393.041 184.911 392.121 185.038 391.195C185.166 390.27 185.288 389.349 185.472 388.424C185.833 386.508 186.449 384.648 187.303 382.89C188.156 384.648 188.772 386.508 189.134 388.424C189.317 389.349 189.45 390.27 189.567 391.195C189.684 392.121 189.797 393.041 189.899 393.967C190.092 395.813 190.245 397.659 190.332 399.5C190.419 401.341 190.46 403.193 190.363 405.034H184.243Z" fill="#592D3D"/>
<path d="M322.697 409.636V413.661C322.83 430.764 322.83 448.37 322.697 465.347C322.697 466.791 322.697 468.224 322.697 469.638V503.547C322.699 504.425 322.526 505.295 322.187 506.107C321.848 506.919 321.35 507.657 320.721 508.279C320.092 508.901 319.346 509.394 318.524 509.731C317.701 510.068 316.82 510.242 315.93 510.242H194.07C192.275 510.241 190.554 509.537 189.284 508.284C188.015 507.031 187.303 505.333 187.303 503.562V474.286C187.303 473.023 187.303 471.735 187.303 470.438C187.175 452.897 187.175 435.291 187.303 417.469V405.034" stroke="#592D3D" stroke-width="12" stroke-miterlimit="10"/>
<path d="M319.637 409.636C319.541 407.539 319.586 405.436 319.668 403.333C319.75 401.231 319.908 399.133 320.102 397.03C320.204 395.979 320.311 394.928 320.433 393.876C320.555 392.825 320.683 391.779 320.867 390.727C321.222 388.562 321.836 386.447 322.697 384.424C323.558 386.447 324.173 388.562 324.528 390.727C324.712 391.779 324.845 392.83 324.962 393.876C325.079 394.923 325.191 395.979 325.293 397.03C325.487 399.133 325.645 401.231 325.727 403.333C325.808 405.436 325.854 407.539 325.757 409.636H319.637Z" fill="#592D3D"/>
<path d="M291.047 395.778C291.159 391.024 297.279 389.012 300.339 392.03C300.836 392.531 301.229 393.123 301.494 393.774C301.759 394.424 301.892 395.12 301.884 395.82C301.877 396.521 301.73 397.214 301.451 397.859C301.172 398.503 300.768 399.088 300.26 399.578C299.752 400.069 299.152 400.456 298.492 400.717C297.833 400.979 297.128 401.11 296.417 401.103C295.707 401.095 295.004 400.95 294.351 400.675C293.697 400.4 293.105 400.001 292.607 399.5C292.111 399.012 291.717 398.432 291.449 397.793C291.181 397.154 291.045 396.469 291.047 395.778Z" fill="#592D3D"/>
<path d="M208.136 395.627C208.029 391.527 212.619 389.515 215.679 391.024C219.759 392.533 219.759 398.067 215.679 400.582C213.639 401.588 211.599 400.582 209.687 399.334C209.193 398.847 208.803 398.269 208.536 397.633C208.27 396.997 208.134 396.315 208.136 395.627Z" fill="#592D3D"/>
<path d="M255 390.406C255.365 391.354 255.621 392.339 255.765 393.343C255.917 394.316 256 395.297 256.015 396.281L256.168 402.161C256.214 404.118 256.275 406.08 256.295 408.042L256.382 413.912C256.499 421.744 256.494 429.587 256.525 437.424C256.555 445.261 256.617 453.098 256.525 460.935C256.479 464.854 256.372 468.773 256.255 472.691C256.204 474.648 256.107 476.61 255.913 478.567C255.739 480.544 255.438 482.508 255.01 484.447C254.582 482.508 254.281 480.544 254.107 478.567C253.914 476.61 253.817 474.648 253.766 472.691C253.648 468.773 253.541 464.854 253.495 460.935C253.393 453.098 253.495 445.261 253.495 437.424C253.495 429.587 253.495 421.754 253.587 413.917L253.674 408.032L253.842 402.156L254.011 396.281C254.029 395.297 254.115 394.316 254.266 393.343C254.399 392.34 254.646 391.355 255 390.406Z" fill="#EDD494"/>
<path d="M216.862 416.176C217.619 415.821 218.42 415.567 219.244 415.421C220.032 415.275 220.83 415.191 221.631 415.17L226.399 415.004L235.936 414.797C242.291 414.702 248.64 414.677 255 414.662C261.36 414.647 267.714 414.581 274.069 414.662C277.246 414.707 280.423 414.813 283.606 414.928C285.192 414.984 286.783 415.079 288.369 415.265C289.98 415.441 291.574 415.741 293.138 416.161C291.575 416.583 289.98 416.881 288.369 417.051C286.783 417.242 285.192 417.338 283.606 417.388C280.423 417.504 277.246 417.604 274.069 417.65C267.714 417.745 261.36 417.65 255 417.65C248.64 417.65 242.286 417.65 235.926 417.574C232.749 417.544 229.571 417.443 226.399 417.323L221.631 417.152C220.831 417.13 220.035 417.046 219.249 416.9C218.424 416.764 217.622 416.521 216.862 416.176Z" fill="#EDD494"/>
<path d="M225.629 431.961C226.231 431.677 226.875 431.489 227.536 431.402C228.148 431.317 228.766 431.292 229.383 431.327C230.602 431.377 231.82 431.408 233.039 431.433C235.477 431.488 237.915 431.508 240.353 431.518C245.264 431.518 250.089 431.558 255.02 431.413C259.952 431.267 264.843 431.196 269.749 431.216C272.202 431.216 274.655 431.282 277.103 431.337C278.336 431.353 279.567 431.432 280.791 431.573C282.049 431.711 283.291 431.968 284.498 432.343C283.319 432.8 282.095 433.137 280.847 433.349C279.631 433.565 278.403 433.71 277.17 433.782C274.711 433.958 272.253 434.109 269.8 434.194C264.884 434.375 259.972 434.355 255.071 434.421C252.618 434.421 250.17 434.531 247.687 434.471C245.203 434.411 242.745 434.406 240.281 434.315C237.818 434.224 235.345 434.023 232.886 433.772C231.652 433.636 230.428 433.485 229.199 433.319C228.578 433.244 227.968 433.102 227.378 432.896C226.746 432.685 226.154 432.369 225.629 431.961Z" fill="#EDD494"/>
<path d="M223.854 449.813C224.459 449.462 225.117 449.208 225.803 449.059C226.442 448.912 227.095 448.83 227.751 448.812L231.642 448.651C234.238 448.561 236.839 448.485 239.435 448.445C244.627 448.37 249.818 448.37 255 448.37C260.182 448.37 265.384 448.284 270.575 448.37C273.171 448.415 275.767 448.521 278.363 448.636C279.665 448.68 280.964 448.79 282.254 448.968C283.583 449.148 284.891 449.453 286.161 449.879C284.895 450.297 283.592 450.595 282.27 450.769C280.978 450.951 279.677 451.064 278.373 451.106C275.777 451.222 273.182 451.328 270.586 451.373C265.394 451.473 260.197 451.403 255.005 451.373C249.813 451.343 244.622 451.343 239.43 451.247C236.834 451.197 234.233 451.106 231.637 451.001L227.746 450.814C227.089 450.795 226.437 450.711 225.797 450.563C225.113 450.417 224.457 450.164 223.854 449.813Z" fill="#EDD494"/>
<path d="M347.157 427.635C347.259 408.972 346.54 392.387 343.21 379.651C338.069 366.899 328.838 359.293 312.548 359.293L324.202 426.936C324.202 426.936 335.682 432.112 347.157 427.635Z" fill="#EDD494"/>
<path d="M351.543 422.328C350.962 422.8 350.331 423.208 349.661 423.545" stroke="#592D3D" stroke-width="12" stroke-miterlimit="10" stroke-linecap="square"/>
<path d="M167.79 379.113C164.312 391.975 163.71 408.857 163.843 427.906C173.992 432.207 189.562 426.825 189.562 426.825L198.39 360.284C182.651 360.284 173.267 367.276 167.79 379.113Z" fill="#EDD494"/>
<path d="M314.497 353.377L294.892 353.428C294.892 380.451 256.474 409.335 256.474 409.335C256.474 409.335 215.266 378.861 215.266 353.428L195.549 353.377C193.754 353.377 192.032 354.081 190.762 355.332C189.492 356.584 188.778 358.282 188.776 360.053V503.26C188.778 505.031 189.492 506.729 190.762 507.981C192.032 509.232 193.754 509.936 195.549 509.936H317.404C319.198 509.936 320.92 509.232 322.189 507.98C323.458 506.729 324.171 505.031 324.171 503.26V363.358C324.171 357.231 321.172 353.377 314.497 353.377Z" fill="#633749"/>
<path d="M312.548 353.377C344.954 353.377 349.982 381.547 350.237 420.361C340.757 426.206 325.293 421.025 325.293 421.025L312.548 353.377Z" fill="#633749"/>
<path d="M324.171 390.174L312.548 409.335L318.357 474.728H324.273V421.598L333.086 423.052C330.22 386.748 324.171 390.174 324.171 390.174Z" fill="#5E3244"/>
<path d="M198.39 353.377C166.882 353.377 159.722 380.435 159.197 417.594C168.887 427.579 188.751 419.898 188.751 419.898L198.39 353.377Z" fill="#633749"/>
<path d="M188.761 390.174V419.898L179.933 422.061C182.825 386.814 188.761 390.174 188.761 390.174Z" fill="#5E3244"/>
<path d="M312.548 353.377C346.933 353.377 352.558 381.688 352.787 420.673C339.425 426.92 325.293 421.025 325.293 421.025" stroke="#592D3D" stroke-width="12" stroke-miterlimit="10" stroke-linecap="square"/>
<path d="M198.39 353.377C164.327 353.377 157.549 380.888 157.208 419.129C167.708 426.568 188.751 419.898 188.751 419.898" stroke="#592D3D" stroke-width="12" stroke-miterlimit="10" stroke-linecap="square"/>
<path d="M195.549 509.936H255C199.313 509.936 203.536 393.665 188.756 393.665V503.26C188.757 504.139 188.933 505.009 189.275 505.82C189.617 506.631 190.118 507.368 190.749 507.988C191.38 508.608 192.129 509.099 192.952 509.433C193.776 509.768 194.659 509.938 195.549 509.936Z" fill="#5E3244"/>
<path d="M185.716 404.752C185.62 402.906 185.66 401.055 185.747 399.219C185.834 397.383 185.987 395.526 186.181 393.685C186.283 392.765 186.39 391.839 186.512 390.914C186.634 389.988 186.762 389.067 186.946 388.147C187.307 386.231 187.922 384.371 188.776 382.614C189.631 384.371 190.246 386.231 190.607 388.147C190.791 389.067 190.924 389.993 191.041 390.914C191.158 391.834 191.27 392.765 191.372 393.685C191.57 395.536 191.716 397.381 191.811 399.219C191.893 401.065 191.933 402.916 191.811 404.752H185.716Z" fill="#592D3D"/>
<path d="M324.171 409.335V413.359C324.304 430.462 324.304 448.068 324.171 465.05C324.171 466.494 324.171 467.928 324.171 469.341V503.25C324.171 505.021 323.458 506.719 322.189 507.97C320.92 509.222 319.199 509.926 317.404 509.926H195.549C193.754 509.926 192.032 509.222 190.762 507.971C189.492 506.719 188.778 505.021 188.777 503.25V470.151C188.644 452.615 188.644 435.009 188.777 417.182V404.752" stroke="#592D3D" stroke-width="12" stroke-miterlimit="10"/>
<path d="M321.111 409.335C321.014 407.232 321.06 405.129 321.142 403.032C321.223 400.934 321.382 398.826 321.58 396.729C321.682 395.677 321.784 394.626 321.907 393.575C322.029 392.523 322.157 391.472 322.345 390.421C322.698 388.255 323.311 386.14 324.171 384.118C325.036 386.139 325.65 388.255 326.002 390.421C326.186 391.472 326.323 392.523 326.436 393.575C326.548 394.626 326.665 395.677 326.767 396.729C326.966 398.826 327.119 400.929 327.201 403.032C327.282 405.134 327.333 407.232 327.231 409.335H321.111Z" fill="#592D3D"/>
<path d="M195.549 353.428L314.497 353.377" stroke="#592D3D" stroke-width="12" stroke-miterlimit="10"/>
<path d="M158.467 420.673C159.048 421.192 159.676 421.657 160.344 422.061" stroke="#592D3D" stroke-width="12" stroke-miterlimit="10" stroke-linecap="square"/>
<path d="M345.571 415.738C344.509 416.36 343.343 416.79 342.128 417.006C340.917 417.238 339.685 417.346 338.451 417.328C337.223 417.306 335.999 417.175 334.795 416.935C334.193 416.825 333.601 416.649 333.015 416.498C332.428 416.347 331.852 416.105 331.291 415.874C331.908 415.874 332.51 415.959 333.106 416.01L334.902 416.156C335.498 416.156 336.09 416.256 336.687 416.261C337.283 416.266 337.875 416.317 338.467 416.322C339.65 416.347 340.833 416.322 342.037 416.231C343.225 416.147 344.406 415.982 345.571 415.738Z" fill="#592D3D"/>
<path d="M294.892 353.428C294.892 380.451 256.474 409.335 256.474 409.335C256.474 409.335 215.266 378.861 215.266 353.428" stroke="#592D3D" stroke-width="12" stroke-miterlimit="10"/>
<path d="M264.078 423.027L256.734 435.573L249.39 423.027H224.91L256.714 477.354L288.517 423.027H264.078Z" stroke="white" stroke-width="16"/>
<path d="M264.078 423.027L256.734 435.573L249.39 423.027H224.91L256.714 477.354L288.517 423.027H264.078Z" fill="#44B783"/>
<path d="M264.078 423.027L256.734 435.573L249.39 423.027H237.66L256.744 455.628L275.828 423.027H264.078Z" fill="#364A5E"/>
<path opacity="0.15" d="M338.665 325.288C353.104 313.719 366.415 297.762 374.712 281.977C374.682 281.927 372.932 283.678 372.902 283.627C372.871 283.577 362.156 293.074 331.327 292.933C292.414 292.777 300.451 282.028 253.546 282.028C212.022 282.028 218.617 288.009 179.52 290.152C147.854 291.887 136.874 283.612 136.874 283.612L136.772 283.778C142.311 294.301 149.27 304.036 157.457 312.718C159.661 315.057 161.976 317.335 164.332 319.498C166.825 321.811 169.438 323.993 172.161 326.038C174.802 328.025 177.602 329.921 180.489 331.677C191.561 337.713 204.194 342.311 218.04 345.324C221.35 346.043 224.67 346.652 227.888 347.135C261.451 350.078 299.839 350.505 330.266 331.481C333.137 329.544 335.962 327.456 338.665 325.288Z" fill="black"/>
<path d="M158.87 305.67C160.047 305.67 161.002 304.729 161.002 303.567C161.002 302.406 160.047 301.465 158.87 301.465C157.693 301.465 156.738 302.406 156.738 303.567C156.738 304.729 157.693 305.67 158.87 305.67Z" fill="#592D3D"/>
<path d="M172.64 307.159C173.474 307.159 174.15 306.492 174.15 305.67C174.15 304.848 173.474 304.181 172.64 304.181C171.806 304.181 171.13 304.848 171.13 305.67C171.13 306.492 171.806 307.159 172.64 307.159Z" fill="#592D3D"/>
<path d="M204.535 329.624C205.369 329.624 206.045 328.958 206.045 328.135C206.045 327.313 205.369 326.646 204.535 326.646C203.702 326.646 203.026 327.313 203.026 328.135C203.026 328.958 203.702 329.624 204.535 329.624Z" fill="#592D3D"/>
<path d="M258.483 331.299C259.317 331.299 259.993 330.633 259.993 329.81C259.993 328.988 259.317 328.322 258.483 328.322C257.65 328.322 256.974 328.988 256.974 329.81C256.974 330.633 257.65 331.299 258.483 331.299Z" fill="#592D3D"/>
<path d="M263.991 327.874C264.825 327.874 265.501 327.207 265.501 326.385C265.501 325.563 264.825 324.896 263.991 324.896C263.158 324.896 262.482 325.563 262.482 326.385C262.482 327.207 263.158 327.874 263.991 327.874Z" fill="#592D3D"/>
<path d="M294.948 326.385C295.782 326.385 296.458 325.718 296.458 324.896C296.458 324.074 295.782 323.407 294.948 323.407C294.115 323.407 293.439 324.074 293.439 324.896C293.439 325.718 294.115 326.385 294.948 326.385Z" fill="#592D3D"/>
<path d="M296.458 317.134C297.292 317.134 297.967 316.468 297.967 315.645C297.967 314.823 297.292 314.156 296.458 314.156C295.624 314.156 294.948 314.823 294.948 315.645C294.948 316.468 295.624 317.134 296.458 317.134Z" fill="#592D3D"/>
<path d="M199.762 322.154C201.274 322.154 202.501 320.945 202.501 319.453C202.501 317.961 201.274 316.752 199.762 316.752C198.249 316.752 197.023 317.961 197.023 319.453C197.023 320.945 198.249 322.154 199.762 322.154Z" fill="#592D3D"/>
<path d="M306.224 328.92C306.813 328.92 307.29 328.449 307.29 327.869C307.29 327.288 306.813 326.817 306.224 326.817C305.636 326.817 305.159 327.288 305.159 327.869C305.159 328.449 305.636 328.92 306.224 328.92Z" fill="#592D3D"/>
<path d="M327.91 324.252C329.087 324.252 330.041 323.311 330.041 322.149C330.041 320.988 329.087 320.047 327.91 320.047C326.732 320.047 325.778 320.988 325.778 322.149C325.778 323.311 326.732 324.252 327.91 324.252Z" fill="#592D3D"/>
<path d="M235.906 338.317C237.083 338.317 238.037 337.375 238.037 336.214C238.037 335.053 237.083 334.111 235.906 334.111C234.728 334.111 233.774 335.053 233.774 336.214C233.774 337.375 234.728 338.317 235.906 338.317Z" fill="#592D3D"/>
<path d="M327.91 307.109C328.743 307.109 329.419 306.442 329.419 305.62C329.419 304.797 328.743 304.131 327.91 304.131C327.076 304.131 326.4 304.797 326.4 305.62C326.4 306.442 327.076 307.109 327.91 307.109Z" fill="#592D3D"/>
<path d="M333.565 312.059C334.399 312.059 335.075 311.392 335.075 310.57C335.075 309.747 334.399 309.081 333.565 309.081C332.732 309.081 332.056 309.747 332.056 310.57C332.056 311.392 332.732 312.059 333.565 312.059Z" fill="#592D3D"/>
<path d="M173.941 268.808C179.844 268.808 184.63 264.087 184.63 258.264C184.63 252.441 179.844 247.721 173.941 247.721C168.037 247.721 163.251 252.441 163.251 258.264C163.251 264.087 168.037 268.808 173.941 268.808Z" fill="#592D3D"/>
<path d="M173.874 266.776C174.787 266.725 175.807 266.645 176.781 266.544C177.755 266.444 178.75 266.323 179.734 266.172C180.719 266.021 181.708 265.845 182.697 265.669C183.687 265.493 184.697 265.327 185.757 265.252C184.924 265.884 184.015 266.411 183.049 266.821C182.089 267.217 181.104 267.553 180.101 267.827C179.096 268.116 178.075 268.345 177.041 268.511C175.991 268.692 174.926 268.783 173.859 268.783L173.874 266.776Z" fill="#592D3D"/>
<path d="M337.503 268.808C343.406 268.808 348.192 264.087 348.192 258.264C348.192 252.441 343.406 247.721 337.503 247.721C331.599 247.721 326.813 252.441 326.813 258.264C326.813 264.087 331.599 268.808 337.503 268.808Z" fill="#592D3D"/>
<path d="M337.503 266.776C338.421 266.725 339.436 266.645 340.41 266.544C341.384 266.444 342.383 266.323 343.368 266.172C344.352 266.021 345.341 265.845 346.331 265.669C347.32 265.493 348.33 265.327 349.391 265.252C348.557 265.883 347.648 266.41 346.683 266.821C345.722 267.217 344.738 267.553 343.735 267.827C342.73 268.116 341.708 268.344 340.675 268.511C339.624 268.692 338.559 268.783 337.492 268.783L337.503 266.776Z" fill="#592D3D"/>
<path d="M226.001 284.814C226.001 275.307 283.999 276.736 283.999 284.814C283.999 292.4 280.943 299.675 275.505 305.039C270.067 310.403 262.691 313.417 255 313.417C247.309 313.417 239.933 310.403 234.495 305.039C229.057 299.675 226.001 292.4 226.001 284.814Z" fill="#592D3D"/>
<path d="M226.001 284.814C226.001 275.307 283.999 276.736 283.999 284.814C283.999 292.4 280.943 299.675 275.505 305.039C270.067 310.403 262.691 313.417 255 313.417C247.309 313.417 239.933 310.403 234.495 305.039C229.057 299.675 226.001 292.4 226.001 284.814V284.814Z" stroke="#592D3D" stroke-width="6" stroke-miterlimit="10"/>
<path d="M271.57 297.259C271.57 293.205 264.149 289.915 255 289.915C245.851 289.915 238.43 293.205 238.43 297.259V319.564C238.43 326.812 245.851 332.683 255 332.683C264.149 332.683 271.57 326.812 271.57 319.564V297.264V297.259Z" fill="#F28195"/>
<path d="M271.57 297.259C271.57 293.205 264.149 289.915 255 289.915C245.851 289.915 238.43 293.205 238.43 297.259V319.564C238.43 326.812 245.851 332.683 255 332.683C264.149 332.683 271.57 326.812 271.57 319.564V297.264V297.259Z" stroke="#592D3D" stroke-width="8" stroke-miterlimit="10"/>
<path d="M244.448 287.199L244.912 287.093L245.3 287.023C245.55 286.982 245.81 286.952 246.044 286.932C246.534 286.883 247.026 286.866 247.518 286.882C248.515 286.903 249.506 287.04 250.471 287.289C252.491 287.796 254.32 288.863 255.745 290.363C257.085 291.778 257.984 293.543 258.335 295.448C258.655 297.213 258.411 299.033 257.637 300.655C256.576 299.181 255.77 297.863 254.924 296.751C254.542 296.22 254.123 295.715 253.669 295.242C253.258 294.826 252.798 294.461 252.297 294.156C251.346 293.592 250.283 293.236 249.181 293.109C248.601 293.034 248.017 292.997 247.432 292.999C247.131 292.999 246.83 292.999 246.534 292.999L246.101 293.029H245.897C245.851 293.029 245.749 293.029 245.784 293.029L244.448 287.199Z" fill="#592D3D"/>
<path d="M217.918 224.084L211.288 221.875L195.376 216.573L176.2 210.18L159.63 204.646C156.942 203.751 154.27 202.795 151.567 201.96L151.455 201.92C150.15 201.565 148.756 201.736 147.579 202.395C146.402 203.054 145.539 204.147 145.179 205.434C144.819 206.72 144.993 208.096 145.661 209.256C146.329 210.417 147.437 211.269 148.741 211.624L155.371 213.832L171.283 219.134L190.459 225.522L207.029 231.056C209.712 231.951 212.384 232.902 215.092 233.742L215.205 233.782C215.851 233.958 216.525 234.006 217.19 233.925C217.855 233.843 218.498 233.633 219.08 233.307C219.663 232.981 220.175 232.545 220.587 232.023C220.998 231.502 221.302 230.905 221.48 230.268C221.658 229.631 221.708 228.966 221.625 228.31C221.542 227.654 221.33 227.021 220.999 226.446C220.668 225.871 220.226 225.366 219.697 224.96C219.168 224.554 218.564 224.254 217.918 224.079V224.084Z" fill="#592D3D"/>
<path d="M355.562 200.325L349.075 202.891L333.499 209.083L314.726 216.548L298.503 223.012C295.871 224.058 293.242 225.105 290.613 226.151L290.501 226.191C289.221 226.694 288.176 227.283 287.441 228.505C286.758 229.681 286.574 231.075 286.931 232.384C287.285 233.652 288.127 234.735 289.277 235.402C290.409 235.995 291.96 236.408 293.204 235.905L299.696 233.324L315.272 227.132L334.05 219.657L350.273 213.208C352.9 212.162 355.536 211.12 358.163 210.069L358.275 210.024C359.555 209.521 360.601 208.932 361.335 207.715C361.674 207.144 361.895 206.513 361.986 205.858C362.078 205.203 362.037 204.537 361.867 203.897C361.697 203.258 361.401 202.657 360.995 202.131C360.59 201.604 360.083 201.162 359.504 200.828C358.372 200.24 356.816 199.822 355.572 200.325H355.562Z" fill="#592D3D"/>
</g>
</g>
<defs>
<filter id="filter0_f_2_311" x="-1" y="-29" width="512" height="500" filterUnits="userSpaceOnUse" color-interpolation-filters="sRGB">
<feFlood flood-opacity="0" result="BackgroundImageFix"/>
<feBlend mode="normal" in="SourceGraphic" in2="BackgroundImageFix" result="shape"/>
<feGaussianBlur stdDeviation="0.5" result="effect1_foregroundBlur_2_311"/>
</filter>
</defs>
</svg>
